<svg xmlns="http://www.w3.org/2000/svg" viewBox="0 0 180 52" role="img" aria-label="Hajzy logo">
  <defs>
    <linearGradient id="hajzyGrad" x1="0" x2="1" y1="0" y2="1">
      <stop offset="0%" stop-color="#0f7c73"/>
      <stop offset="100%" stop-color="#00433f"/>
    </linearGradient>
    <linearGradient id="hajzyAccent" x1="0" x2="1" y1="0" y2="1">
      <stop offset="0%" stop-color="#f7dd8d"/>
      <stop offset="100%" stop-color="#d9a93c"/>
    </linearGradient>
  </defs>

  <g transform="translate(0 2)">
    <path d="M14 42V10h8v12h12V10h8v32h-8V30H22v12h-8Z" fill="url(#hajzyGrad)"/>
    <path d="M52 42V10h8v32h-8Zm0-18h16v8H52v-8Z" fill="url(#hajzyGrad)"/>
    <path d="M72 42V10h8v12h12V10h8v32h-8V30H80v12h-8Z" fill="url(#hajzyGrad)"/>
    <path d="M103 13.5 110 20l-7 7-7-7 7-6.5Z" fill="url(#hajzyAccent)"/>
    <path d="M103 27v19h-7V27h7Z" fill="#0c5c58" opacity="0.95"/>
  </g>
</svg>
